#!OML:ASF G:\JayActor3\Patient Classification 1\Patient 1\Session 6\male.ASF
:FULLY-SPECIFIED
:DEGREES
1760
root 4.01482 15.8321 -23.2154 -17.8511 -138.749 3.39657
lowerback -6.01682 0.553394 3.99761
upperback 5.33366 0.274559 -0.503999
thorax 9.0644 0.366796 -2.75012
lowerneck -6.19454 2.60284 3.47662
upperneck 3.68844 3.30582 -2.35238
head 2.35041 1.62882 -1.22262
rclavicle 1.635e-014 -7.55382e-015
rhumerus 33.38 23.067 -25.7514
rradius 131.478
rwrist -40.4344
rhand -39.5292 -8.95197
rfingers 7.12502
rthumb -12.5139 -38.5573
lclavicle 1.635e-014 -7.55382e-015
lhumerus -26.8223 19.2192 45.233
lradius 12.3625
lwrist 21.5702
lhand -8.20097 5.20556
lfingers 7.12502
lthumb 17.7155 34.4186
rfemur -1.53708 6.14973 14.679
rtibia 36.6391
rfoot -21.065 -16.861
rtoes -8.93639
lfemur 8.86363 -2.30836 -7.04498
ltibia 24.6951
lfoot -16.8454 6.90549
ltoes -6.04988
1761
root 4.01953 15.8292 -23.2094 -17.8747 -138.883 3.39379
lowerback -6.07403 0.558606 4.00132
upperback 5.27446 0.280969 -0.477202
thorax 9.03354 0.368978 -2.72249
lowerneck -6.21351 2.57393 3.42244
upperneck 3.33348 3.26503 -2.33713
head 2.23302 1.60655 -1.2099
rclavicle -1.74931e-014 -1.43125e-014
rhumerus 33.4775 22.8283 -25.7999
rradius 131.439
rwrist -40.2893
rhand -39.5268 -8.77757
rfingers 7.12502
rthumb -12.5116 -38.383
lclavicle -1.74931e-014 -1.43125e-014
lhumerus -26.9767 19.3681 45.1103
lradius 12.3155
lwrist 21.3917
lhand -8.19719 5.2179
lfingers 7.12502
lthumb 17.7191 34.4306
rfemur -1.58762 6.19183 14.6939
rtibia 36.6963
rfoot -21.2774 -16.8615
rtoes -9.24617
lfemur 8.91385 -2.28483 -7.03018
ltibia 24.7033
lfoot -16.9229 6.95256
ltoes -5.80334
1762
root 4.02458 15.8265 -23.203 -17.8929 -139.031 3.39094
lowerback -6.12553 0.563811 4.00667
upperback 5.21172 0.287448 -0.449048
thorax 8.99545 0.371066 -2.69432
lowerneck -6.23408 2.54459 3.36533
upperneck 2.97695 3.22327 -2.32323
head 2.11589 1.58348 -1.19715
rclavicle 7.95139e-015 -1.51076e-014
rhumerus 33.5895 22.6073 -25.8519
rradius 131.391
rwrist -40.1123
rhand -39.5245 -8.60477
rfingers 7.12502
rthumb -12.5093 -38.2103
lclavicle 7.95139e-015 -1.51076e-014
lhumerus -27.1437 19.5331 44.9759
lradius 12.2671
lwrist 21.2019
lhand -8.16595 5.24539
lfingers 7.12502
lthumb 17.7492 34.4553
rfemur -1.65073 6.22864 14.708
rtibia 36.7548
rfoot -21.4964 -16.8709
rtoes -9.62026
lfemur 8.96078 -2.25419 -7.01258
ltibia 24.7163
lfoot -16.9998 7.02946
ltoes -5.54984
1763
root 4.02978 15.8238 -23.1964 -17.9044 -139.189 3.3795
lowerback -6.17045 0.571708 4.01005
upperback 5.15014 0.298111 -0.424082
thorax 8.95511 0.375096 -2.66789
lowerneck -6.26118 2.51485 3.31467
upperneck 2.61521 3.17966 -2.31382
head 1.999 1.55914 -1.18702
rclavicle 2.02263e-014 4.37326e-015
rhumerus 33.7036 22.3872 -25.9067
rradius 131.341
rwrist -39.917
rhand -39.4981 -8.50586
rfingers 7.12502
rthumb -12.4839 -38.113
lclavicle 2.02263e-014 4.37326e-015
lhumerus -27.3068 19.712 44.8336
lradius 12.2123
lwrist 20.9992
lhand -8.11308 5.28045
lfingers 7.12502
lthumb 17.8 34.4858
rfemur -1.71956 6.25734 14.7128
rtibia 36.8122
rfoot -21.7033 -16.877
rtoes -9.99574
lfemur 9.01164 -2.21798 -7.0013
ltibia 24.7323
lfoot -17.075 7.15022
ltoes -5.25417
1764
root 4.03517 15.8216 -23.1893 -17.9133 -139.356 3.36974
lowerback -6.21147 0.579631 4.01968
upperback 5.08974 0.308374 -0.401692
thorax 8.91389 0.379366 -2.6478
lowerneck -6.29316 2.48644 3.2748
upperneck 2.2452 3.13614 -2.31022
head 1.88121 1.53448 -1.1806
rclavicle 5.46161e-014 7.15625e-015
rhumerus 33.8219 22.1603 -25.9669
rradius 131.293
rwrist -39.7149
rhand -39.4577 -8.46774
rfingers 7.12502
rthumb -12.4449 -38.0772
lclavicle 5.46161e-014 7.15625e-015
lhumerus -27.4666 19.9048 44.6817
lradius 12.1536
lwrist 20.7831
lhand -8.04513 5.32621
lfingers 7.12502
lthumb 17.8654 34.5256
rfemur -1.79619 6.27103 14.7142
rtibia 36.8633
rfoot -21.873 -16.8871
rtoes -10.4085
lfemur 9.06149 -2.18017 -6.98914
ltibia 24.7504
lfoot -17.1458 7.33307
ltoes -4.95919
